<?xml version="1.0" encoding="UTF-8"?>
<!DOCTYPE svg PUBLIC "-//W3C//DTD SVG 1.1//EN" "http://www.w3.org/Graphics/SVG/1.1/DTD/svg11.dtd">
<svg xmlns="http://www.w3.org/2000/svg" version="1.1" width="1200px" height="253px" style="shape-rendering:geometricPrecision; text-rendering:geometricPrecision; image-rendering:optimizeQuality; fill-rule:evenodd; clip-rule:evenodd" xmlns:xlink="http://www.w3.org/1999/xlink">
<g><path style="opacity:0.975" fill="#204056" d="M -0.5,-0.5 C 166.833,-0.5 334.167,-0.5 501.5,-0.5C 501.5,83.8333 501.5,168.167 501.5,252.5C 334.167,252.5 166.833,252.5 -0.5,252.5C -0.5,168.167 -0.5,83.8333 -0.5,-0.5 Z M 24.5,24.5 C 174.834,24.3333 325.167,24.5 475.5,25C 476.165,58.596 476.498,92.2627 476.5,126C 476.498,159.737 476.165,193.404 475.5,227C 325.167,227.5 174.834,227.667 24.5,227.5C 24.5,159.833 24.5,92.1667 24.5,24.5 Z M 184.5,115.5 C 197.617,113.635 206.117,118.968 210,131.5C 212,142.5 212,153.5 210,164.5C 204.121,180.019 193.621,184.186 178.5,177C 173.996,173.16 171.162,168.327 170,162.5C 168.381,151.509 168.714,140.509 171,129.5C 173.017,122.318 177.517,117.652 184.5,115.5 Z"/></g>
<g><path style="opacity:0.979" fill="#204055" d="M 321.5,51.5 C 329.5,51.5 337.5,51.5 345.5,51.5C 345.5,101.167 345.5,150.833 345.5,200.5C 337.167,200.5 328.833,200.5 320.5,200.5C 320.664,197.813 320.497,195.146 320,192.5C 314.367,199.049 307.201,202.549 298.5,203C 272.283,204.788 257.45,192.621 254,166.5C 252.06,153.836 252.06,141.169 254,128.5C 255.159,117.35 259.659,107.85 267.5,100C 271.221,97.4728 275.221,95.4728 279.5,94C 289.1,92.6091 298.767,92.1091 308.5,92.5C 308.5,99.8333 308.5,107.167 308.5,114.5C 300.714,113.963 293.381,115.463 286.5,119C 283.433,122.297 281.267,126.131 280,130.5C 278.517,139.787 278.184,149.121 279,158.5C 282.048,178.275 292.881,184.442 311.5,177C 316.825,172.043 319.659,165.876 320,158.5C 320.173,122.762 320.673,87.0954 321.5,51.5 Z"/></g>
<g><path style="opacity:0.988" fill="#1f4055" d="M 786.5,51.5 C 794.5,51.5 802.5,51.5 810.5,51.5C 810.5,101.167 810.5,150.833 810.5,200.5C 802.493,200.666 794.493,200.5 786.5,200C 785.726,197.595 785.226,195.095 785,192.5C 778.036,200.33 769.203,203.997 758.5,203.5C 734.467,202.302 721.3,189.636 719,165.5C 718.333,153.5 718.333,141.5 719,129.5C 720.3,112.369 728.8,100.536 744.5,94C 754.448,92.4688 764.448,92.1355 774.5,93C 775.645,99.7524 775.811,106.586 775,113.5C 774.5,114 774,114.5 773.5,115C 754.837,112.67 745.004,120.836 744,139.5C 742.409,151.362 744.075,162.696 749,173.5C 755.945,180.452 764.112,182.285 773.5,179C 780.496,174.848 784.33,168.681 785,160.5C 785.173,124.095 785.673,87.7621 786.5,51.5 Z"/></g>
<g><path style="opacity:0.974" fill="#204155" d="M 81.5,92.5 C 96.1501,90.5268 109.483,93.6935 121.5,102C 124.432,104.423 126.765,107.257 128.5,110.5C 124.064,115.767 119.064,120.6 113.5,125C 112.5,125.667 111.5,125.667 110.5,125C 100.86,114.391 89.8604,112.724 77.5,120C 74.8358,122.669 73.0024,125.836 72,129.5C 70.4587,140.116 70.1254,150.783 71,161.5C 75.3961,178.449 85.8961,183.949 102.5,178C 105.678,175.486 108.844,172.986 112,170.5C 117.612,174.441 122.945,178.774 128,183.5C 128.52,185.289 128.187,186.956 127,188.5C 110.895,203.322 92.3946,207.155 71.5,200C 57.4677,193.621 48.9677,182.788 46,167.5C 43.329,150.59 44.329,133.924 49,117.5C 55.5627,103.484 66.3961,95.1503 81.5,92.5 Z"/></g>
<g><path style="opacity:0.977" fill="#204155" d="M 180.5,92.5 C 218.7,90.6976 237.7,109.031 237.5,147.5C 236.435,192.35 214.102,209.85 170.5,200C 156.468,193.621 147.968,182.788 145,167.5C 141.987,149.783 143.321,132.45 149,115.5C 156.019,102.97 166.519,95.3036 180.5,92.5 Z M 184.5,115.5 C 177.517,117.652 173.017,122.318 171,129.5C 168.714,140.509 168.381,151.509 170,162.5C 171.162,168.327 173.996,173.16 178.5,177C 193.621,184.186 204.121,180.019 210,164.5C 212,153.5 212,142.5 210,131.5C 206.117,118.968 197.617,113.635 184.5,115.5 Z"/></g>
<g><path style="opacity:0.978" fill="#204155" d="M 399.5,92.5 C 436.238,90.0731 454.905,107.24 455.5,144C 455.484,148.082 455.151,152.082 454.5,156C 435.836,156.5 417.17,156.667 398.5,156.5C 398.5,149.833 398.5,143.167 398.5,136.5C 409.167,136.5 419.833,136.5 430.5,136.5C 430.286,122.621 423.286,115.287 409.5,114.5C 399.27,114.235 392.436,118.902 389,128.5C 387.054,139.847 387.054,151.181 389,162.5C 395.083,178.789 406.583,184.289 423.5,179C 428.154,177.338 432.154,174.671 435.5,171C 437.044,169.813 438.711,169.48 440.5,170C 445.649,173.982 450.315,178.482 454.5,183.5C 448.124,192.537 439.457,198.37 428.5,201C 411.009,206.06 394.676,203.727 379.5,194C 368.707,183.906 363.207,171.406 363,156.5C 361.266,140.357 363.932,125.024 371,110.5C 378.347,100.967 387.847,94.9666 399.5,92.5 Z"/></g>
<g><path style="opacity:0.974" fill="#204055" d="M 554.5,92.5 C 570.772,90.3161 585.105,94.4828 597.5,105C 598.74,106.73 599.74,108.563 600.5,110.5C 599.103,113.406 597.103,115.906 594.5,118C 591.322,120.514 588.156,123.014 585,125.5C 581.459,122.295 577.626,119.462 573.5,117C 554.333,112.175 544.166,119.675 543,139.5C 541.409,151.362 543.075,162.696 548,173.5C 554.959,180.442 563.126,182.276 572.5,179C 576.77,176.284 580.937,173.451 585,170.5C 590.579,174.073 595.579,178.406 600,183.5C 600.667,184.833 600.667,186.167 600,187.5C 588.348,200.38 573.848,205.546 556.5,203C 536.466,200.301 523.966,189.134 519,169.5C 517.464,157.209 517.13,144.876 518,132.5C 520.833,110.416 533,97.083 554.5,92.5 Z"/></g>
<g><path style="opacity:0.977" fill="#204155" d="M 645.5,92.5 C 656.211,92.1884 666.878,92.6884 677.5,94C 691.16,96.6586 698.993,104.825 701,118.5C 701.833,145.839 701.667,173.173 700.5,200.5C 693.884,201.628 687.218,201.795 680.5,201C 678.834,198.52 678.001,195.687 678,192.5C 673.849,197.317 668.682,200.483 662.5,202C 649.493,205.096 637.159,203.43 625.5,197C 613.383,184.816 610.549,170.649 617,154.5C 621.506,146.323 628.339,141.156 637.5,139C 646.739,136.917 656.072,136.251 665.5,137C 666.78,139.894 667.446,143.061 667.5,146.5C 667.479,149.752 667.146,152.919 666.5,156C 661.167,156.333 655.833,156.667 650.5,157C 642.819,158.014 638.486,162.347 637.5,170C 638.486,176.986 642.486,180.986 649.5,182C 657.676,183.45 665.343,182.117 672.5,178C 674.617,176.269 676.117,174.102 677,171.5C 677.956,154.767 677.623,138.1 676,121.5C 674.127,119.291 671.96,117.458 669.5,116C 664.838,115.057 660.172,114.224 655.5,113.5C 647.027,113.698 639.361,116.198 632.5,121C 631.167,121.667 629.833,121.667 628.5,121C 624.663,115.496 621.829,109.663 620,103.5C 627.71,97.7712 636.21,94.1045 645.5,92.5 Z"/></g>
<g><path style="opacity:0.977" fill="#1f4055" d="M 863.5,92.5 C 902.165,90.596 921.165,109.096 920.5,148C 920.333,150.167 920.167,152.333 920,154.5C 919.5,155 919,155.5 918.5,156C 899.836,156.5 881.17,156.667 862.5,156.5C 862.5,149.833 862.5,143.167 862.5,136.5C 873.167,136.5 883.833,136.5 894.5,136.5C 893.201,119.047 883.868,111.88 866.5,115C 856.824,118.841 851.99,126.007 852,136.5C 850.189,148.72 851.856,160.387 857,171.5C 868.324,181.712 880.824,183.212 894.5,176C 897.02,174.237 899.353,172.237 901.5,170C 902.5,169.333 903.5,169.333 904.5,170C 909,173.833 913.5,177.667 918,181.5C 918.667,182.833 918.667,184.167 918,185.5C 899.838,202.866 878.672,207.7 854.5,200C 838.788,192.938 829.955,180.771 828,163.5C 825.325,145.919 827.325,128.919 834,112.5C 841.092,101.71 850.925,95.0435 863.5,92.5 Z"/></g>
<g><path style="opacity:0.981" fill="#204055" d="M 980.5,92.5 C 995.479,90.0274 1007.98,94.3608 1018,105.5C 1029.99,94.2908 1044.15,90.1241 1060.5,93C 1076.87,96.7017 1086.37,106.868 1089,123.5C 1089.5,149.165 1089.67,174.831 1089.5,200.5C 1081.17,200.5 1072.83,200.5 1064.5,200.5C 1064.67,177.831 1064.5,155.164 1064,132.5C 1059.74,116.623 1049.91,111.789 1034.5,118C 1029.71,122.069 1026.88,127.236 1026,133.5C 1025.5,155.831 1025.33,178.164 1025.5,200.5C 1017.17,200.5 1008.83,200.5 1000.5,200.5C 1000.67,177.498 1000.5,154.498 1000,131.5C 996.823,118.653 988.656,113.486 975.5,116C 968.93,118.238 964.763,122.738 963,129.5C 961.573,153.132 961.073,176.799 961.5,200.5C 953.248,200.816 945.081,200.482 937,199.5C 936.333,164.833 936.333,130.167 937,95.5C 944.754,94.3526 952.587,94.1859 960.5,95C 961.282,97.7405 961.782,100.574 962,103.5C 967.101,97.8729 973.267,94.2062 980.5,92.5 Z"/></g>
<g><path style="opacity:0.972" fill="#204055" d="M 1199.5,94.5 C 1199.5,97.5 1199.5,100.5 1199.5,103.5C 1187.07,136.62 1174.9,169.953 1163,203.5C 1159.7,214.929 1154.2,225.095 1146.5,234C 1137.72,239.957 1128.05,241.957 1117.5,240C 1116.35,232.914 1116.19,225.747 1117,218.5C 1124.14,218.933 1130.14,216.6 1135,211.5C 1137.73,206.823 1139.56,201.823 1140.5,196.5C 1128.04,163.111 1115.37,129.778 1102.5,96.5C 1102.71,95.914 1103.04,95.414 1103.5,95C 1112.08,94.1843 1120.58,94.351 1129,95.5C 1137.2,118.425 1145.2,141.425 1153,164.5C 1160.67,141.5 1168.33,118.5 1176,95.5C 1183.75,94.5183 1191.58,94.185 1199.5,94.5 Z"/></g>
<g><path style="opacity:0.966" fill="#204156" d="M 597.5,252.5 C 571.5,252.5 545.5,252.5 519.5,252.5C 518.181,244.333 518.181,236.167 519.5,228C 545.167,227.333 570.833,227.333 596.5,228C 597.482,236.081 597.816,244.248 597.5,252.5 Z"/></g>
</svg>
