<?xml version="1.0" encoding="UTF-8"?>
<!DOCTYPE svg PUBLIC "-//W3C//DTD SVG 1.1//EN" "http://www.w3.org/Graphics/SVG/1.1/DTD/svg11.dtd">
<svg xmlns="http://www.w3.org/2000/svg" version="1.1" width="2560px" height="361px" style="shape-rendering:geometricPrecision; text-rendering:geometricPrecision; image-rendering:optimizeQuality; fill-rule:evenodd; clip-rule:evenodd" xmlns:xlink="http://www.w3.org/1999/xlink">
<g><path style="opacity:0.989" fill="#0056d2" d="M 1282.5,-0.5 C 1288.5,-0.5 1294.5,-0.5 1300.5,-0.5C 1295.81,26.956 1290.48,54.2893 1284.5,81.5C 1266.97,81.0729 1250.31,84.5729 1234.5,92C 1213.09,106.644 1201.92,127.144 1201,153.5C 1200.5,219.832 1200.33,286.166 1200.5,352.5C 1170.5,352.5 1140.5,352.5 1110.5,352.5C 1110.5,237.833 1110.5,123.167 1110.5,8.5C 1140.5,8.10995 1170.5,7.77661 1200.5,7.5C 1200.33,20.1711 1200.5,32.8377 1201,45.5C 1214.68,25.5041 1233.18,12.0041 1256.5,5C 1265.24,2.82092 1273.9,0.98759 1282.5,-0.5 Z"/></g>
<g><path style="opacity:0.991" fill="#0055d2" d="M 1433.5,-0.5 C 1445.83,-0.5 1458.17,-0.5 1470.5,-0.5C 1521.99,4.5255 1561.65,28.6922 1589.5,72C 1563.08,86.2939 1536.58,100.461 1510,114.5C 1496.93,90.4556 1476.6,78.1223 1449,77.5C 1437.66,77.4316 1427.16,80.2649 1417.5,86C 1406.05,99.3231 1407.38,111.323 1421.5,122C 1425.5,124 1429.5,126 1433.5,128C 1462.53,136.509 1491.53,145.176 1520.5,154C 1586.25,177.663 1609.42,223.163 1590,290.5C 1579.17,314.667 1561.67,332.167 1537.5,343C 1503.78,356.579 1468.78,361.579 1432.5,358C 1391.55,356.917 1356.05,342.75 1326,315.5C 1315.74,304.06 1307.24,291.394 1300.5,277.5C 1326.36,262.735 1352.69,248.735 1379.5,235.5C 1385.15,245.256 1392.15,254.089 1400.5,262C 1424.08,278.491 1450.08,283.824 1478.5,278C 1489.13,276.286 1496.96,270.786 1502,261.5C 1504.67,248.677 1500.17,239.177 1488.5,233C 1479.84,228.504 1470.84,224.837 1461.5,222C 1438.32,215.941 1415.32,209.274 1392.5,202C 1325.53,178.221 1302.69,132.387 1324,64.5C 1336.46,39.7076 1355.63,22.2076 1381.5,12C 1398.43,5.59961 1415.76,1.43294 1433.5,-0.5 Z"/></g>
<g><path style="opacity:0.986" fill="#0055d2" d="M 2178.5,-0.5 C 2184.17,-0.5 2189.83,-0.5 2195.5,-0.5C 2189.81,27.1101 2184.31,54.7768 2179,82.5C 2128.31,79.8471 2100.31,103.847 2095,154.5C 2094.5,220.499 2094.33,286.499 2094.5,352.5C 2064.5,352.5 2034.5,352.5 2004.5,352.5C 2004.5,237.5 2004.5,122.5 2004.5,7.5C 2034.5,7.5 2064.5,7.5 2094.5,7.5C 2094.33,20.1711 2094.5,32.8377 2095,45.5C 2108.76,25.0976 2127.59,11.5976 2151.5,5C 2160.55,2.71871 2169.55,0.885375 2178.5,-0.5 Z"/></g>
<g><path style="opacity:1" fill="#0056d1" d="M 172.5,0.5 C 230.888,-1.65933 280.388,18.0073 321,59.5C 327.409,66.7404 333.242,74.4071 338.5,82.5C 313.532,97.9891 288.199,112.989 262.5,127.5C 236.368,93.9525 202.368,81.4525 160.5,90C 124.796,101.037 101.962,124.537 92,160.5C 85.599,211.207 105.766,246.707 152.5,267C 198.853,279.973 236.187,267.14 264.5,228.5C 289.999,243.415 315.332,258.582 340.5,274C 298.888,334.302 241.222,362.302 167.5,358C 96.3548,349.534 45.5215,313.034 15,248.5C -10.0594,181.199 -0.392766,119.532 44,63.5C 78.4771,25.5117 121.31,4.51166 172.5,0.5 Z"/></g>
<g><path style="opacity:0.992" fill="#0055d2" d="M 522.5,1.5 C 586.182,-1.90116 639.015,20.0988 681,67.5C 718.75,115.912 729.75,169.912 714,229.5C 696.751,282.752 662.584,320.919 611.5,344C 542.327,370.356 478.327,361.356 419.5,317C 371.118,274.887 349.952,221.721 356,157.5C 369.311,80.854 413.144,31.0207 487.5,8C 499.153,4.96732 510.82,2.80065 522.5,1.5 Z M 530.5,87.5 C 570.043,86.9482 600.21,103.282 621,136.5C 640.592,177.695 634.425,214.528 602.5,247C 571.333,273.597 536.666,279.263 498.5,264C 459.757,244.025 441.591,212.192 444,168.5C 454.355,121.642 483.189,94.6416 530.5,87.5 Z"/></g>
<g><path style="opacity:0.99" fill="#0055d2" d="M 1780.5,1.5 C 1864.15,-1.62491 1922.98,34.7084 1957,110.5C 1968.51,141.965 1972.01,174.298 1967.5,207.5C 1880.16,207.319 1792.83,207.319 1705.5,207.5C 1717.51,247.354 1744.18,270.187 1785.5,276C 1813.47,279.14 1839.47,273.473 1863.5,259C 1871.26,253.239 1878.43,246.739 1885,239.5C 1905.59,255.88 1926.09,272.38 1946.5,289C 1914.47,329.691 1872.47,352.691 1820.5,358C 1752.3,363.796 1696.47,340.629 1653,288.5C 1615.27,233.569 1607.6,174.569 1630,111.5C 1658.43,45.1938 1708.59,8.52718 1780.5,1.5 Z M 1784.5,83.5 C 1811.96,81.2753 1836.29,88.7753 1857.5,106C 1868.79,116.069 1875.79,128.569 1878.5,143.5C 1821.83,143.667 1765.17,143.5 1708.5,143C 1722.8,109.022 1748.13,89.1891 1784.5,83.5 Z"/></g>
<g><path style="opacity:0.992" fill="#0055d2" d="M 2348.5,1.5 C 2373.48,-0.0695713 2397.81,3.0971 2421.5,11C 2440.31,19.1487 2455.48,31.6487 2467,48.5C 2470.03,35.2003 2472.86,21.867 2475.5,8.5C 2502.83,7.5002 2530.16,7.16686 2557.5,7.5C 2557.5,122.5 2557.5,237.5 2557.5,352.5C 2530.16,352.833 2502.83,352.5 2475.5,351.5C 2471.7,340.263 2468.2,328.93 2465,317.5C 2437.54,346.496 2403.71,360.163 2363.5,358.5C 2298.54,355.446 2249.38,326.112 2216,270.5C 2187.9,215.316 2186.24,159.316 2211,102.5C 2239.78,45.5455 2285.61,11.8788 2348.5,1.5 Z M 2369.5,87.5 C 2419.21,87.4116 2452.04,110.745 2468,157.5C 2476.8,200.055 2463.3,233.555 2427.5,258C 2382.33,281.833 2341.5,276 2305,240.5C 2278.76,207.471 2275.42,172.138 2295,134.5C 2312.56,107.304 2337.39,91.6374 2369.5,87.5 Z"/></g>
<g><path style="opacity:0.987" fill="#0055d2" d="M 900.5,360.5 C 888.167,360.5 875.833,360.5 863.5,360.5C 808.393,352.241 772.893,321.241 757,267.5C 753.412,253.387 751.412,239.054 751,224.5C 750.5,152.167 750.333,79.8341 750.5,7.5C 780.5,7.5 810.5,7.5 840.5,7.5C 840.333,75.5008 840.5,143.501 841,211.5C 843.195,254.029 865.528,276.029 908,277.5C 943.628,277.852 966.961,261.185 978,227.5C 980.089,219.966 981.422,212.3 982,204.5C 982.5,138.834 982.667,73.1675 982.5,7.5C 1012.5,7.5 1042.5,7.5 1072.5,7.5C 1072.5,122.5 1072.5,237.5 1072.5,352.5C 1042.5,352.5 1012.5,352.5 982.5,352.5C 982.667,339.829 982.5,327.162 982,314.5C 968.324,334.496 949.824,347.996 926.5,355C 917.807,357.387 909.14,359.22 900.5,360.5 Z"/></g>
</svg>
