<?xml version="1.0" encoding="UTF-8"?>
<svg xmlns="http://www.w3.org/2000/svg" xmlns:xlink="http://www.w3.org/1999/xlink" width="px" height="253px" viewBox="0 0 449 253" version="1.1">
<g id="surface1">
<path style=" stroke:none;fill-rule:evenodd;fill:rgb(0.784314%,14.901961%,16.862745%);fill-opacity:1;" d="M 41.480469 -0.0859375 C 126.195312 -0.0859375 210.90625 -0.0859375 295.621094 -0.0859375 C 292.867188 13.699219 290.003906 27.460938 287.027344 41.199219 C 340.988281 41.375 394.949219 41.433594 448.914062 41.375 C 448.914062 41.726562 448.914062 42.078125 448.914062 42.429688 C 433.898438 112.546875 418.992188 182.707031 404.1875 252.914062 C 336.3125 252.914062 268.433594 252.914062 200.558594 252.914062 C 204.394531 235.105469 208.253906 217.300781 212.136719 199.5 C 141.394531 199.5 70.652344 199.5 -0.0859375 199.5 C -0.0859375 199.148438 -0.0859375 198.796875 -0.0859375 198.445312 C 13.816406 132.300781 27.675781 66.121094 41.480469 -0.0859375 Z M 41.480469 -0.0859375 "/>
<path style=" stroke:none;fill-rule:evenodd;fill:rgb(40%,48.627451%,49.803922%);fill-opacity:1;" d="M 245.808594 27.320312 C 251.394531 27.144531 257.003906 27.085938 262.648438 27.144531 C 262.691406 27.371094 262.628906 27.546875 262.472656 27.671875 C 256.980469 27.320312 251.425781 27.203125 245.808594 27.320312 Z M 245.808594 27.320312 "/>
<path style=" stroke:none;fill-rule:evenodd;fill:rgb(99.607843%,99.607843%,99.607843%);fill-opacity:1;" d="M 245.808594 27.320312 C 251.425781 27.203125 256.980469 27.320312 262.472656 27.671875 C 252.191406 75.789062 242.019531 123.929688 231.953125 172.09375 C 226.632812 172.09375 221.3125 172.09375 215.992188 172.09375 C 216.855469 167.449219 217.792969 162.824219 218.800781 158.210938 C 218.894531 158.203125 218.953125 158.144531 218.976562 158.039062 C 218.425781 157.808594 217.898438 157.808594 217.398438 158.039062 C 207.917969 169.515625 195.699219 174.757812 180.738281 173.761719 C 168.605469 172.195312 159.394531 166.191406 153.117188 155.753906 C 149.492188 149.191406 147.503906 142.164062 147.152344 134.667969 C 146.527344 120.128906 149.6875 106.484375 156.625 93.734375 C 161.664062 84.820312 168.589844 77.761719 177.40625 72.5625 C 187.203125 67.101562 197.609375 65.402344 208.628906 67.464844 C 217.433594 69.445312 224.246094 74.21875 229.058594 81.785156 C 230.140625 83.605469 230.929688 85.539062 231.429688 87.582031 C 231.953125 87.582031 232.480469 87.582031 233.007812 87.582031 C 237.246094 67.472656 241.511719 47.382812 245.808594 27.320312 Z M 245.808594 27.320312 "/>
<path style=" stroke:none;fill-rule:evenodd;fill:rgb(99.607843%,99.607843%,99.607843%);fill-opacity:1;" d="M 113.566406 145.738281 C 119.414062 145.621094 125.203125 145.738281 130.929688 146.089844 C 128.207031 154.878906 122.945312 161.699219 115.144531 166.558594 C 106.105469 171.722656 96.371094 174.152344 85.941406 173.851562 C 73.828125 173.871094 63.539062 169.59375 55.074219 161.023438 C 47.683594 152.128906 44.144531 141.851562 44.460938 130.191406 C 44.195312 116.054688 47.617188 102.90625 54.722656 90.746094 C 66.347656 73.109375 82.746094 65.171875 103.917969 66.941406 C 120.339844 69.585938 131.011719 78.871094 135.929688 94.789062 C 137.375 100.496094 137.902344 106.292969 137.507812 112.179688 C 137.277344 116.125 136.898438 120.046875 136.367188 123.953125 C 111.519531 124.128906 86.671875 124.1875 61.824219 124.128906 C 61.015625 131.105469 61.921875 137.839844 64.542969 144.332031 C 69.328125 154.007812 77.132812 158.808594 87.957031 158.738281 C 93.703125 158.898438 99.140625 157.695312 104.269531 155.136719 C 108.230469 152.839844 111.328125 149.707031 113.566406 145.738281 Z M 113.566406 145.738281 "/>
<path style=" stroke:none;fill-rule:evenodd;fill:rgb(40%,48.627451%,49.803922%);fill-opacity:1;" d="M 311.230469 68.785156 C 298.628906 68.726562 286.0625 68.785156 273.523438 68.960938 C 273.425781 68.949219 273.367188 68.890625 273.347656 68.785156 C 286.003906 68.550781 298.632812 68.550781 311.230469 68.785156 Z M 311.230469 68.785156 "/>
<path style=" stroke:none;fill-rule:evenodd;fill:rgb(99.607843%,99.607843%,99.607843%);fill-opacity:1;" d="M 311.230469 68.785156 C 318.4375 85.496094 325.601562 102.246094 332.714844 119.03125 C 333.042969 119.25 333.425781 119.367188 333.855469 119.382812 C 334.574219 119.515625 335.128906 119.28125 335.523438 118.679688 C 348.902344 102.09375 362.261719 85.492188 375.597656 68.871094 C 388.109375 68.753906 400.621094 68.753906 413.132812 68.871094 C 390.824219 94.585938 368.550781 120.324219 346.308594 146.089844 C 358.285156 172.484375 370.210938 198.898438 382.089844 225.328125 C 369.78125 225.503906 357.445312 225.5625 345.082031 225.503906 C 336.984375 207.730469 328.859375 189.957031 320.703125 172.179688 C 319.707031 172.0625 318.714844 172.0625 317.71875 172.179688 C 302.652344 189.882812 287.683594 207.65625 272.820312 225.503906 C 260.511719 225.5625 248.234375 225.503906 235.988281 225.328125 C 259.277344 197.675781 282.546875 170.003906 305.792969 142.3125 C 295.050781 117.847656 284.292969 93.398438 273.523438 68.960938 C 286.0625 68.785156 298.628906 68.726562 311.230469 68.785156 Z M 311.230469 68.785156 "/>
<path style=" stroke:none;fill-rule:evenodd;fill:rgb(0.784314%,14.901961%,16.862745%);fill-opacity:1;" d="M 93.394531 81.257812 C 99.601562 80.585938 105.332031 81.90625 110.582031 85.210938 C 116.515625 89.859375 119.757812 95.980469 120.316406 103.570312 C 120.453125 105.976562 120.421875 108.378906 120.230469 110.773438 C 101.523438 110.773438 82.8125 110.773438 64.105469 110.773438 C 65.902344 103.429688 69.261719 96.929688 74.191406 91.273438 C 79.425781 85.679688 85.828125 82.339844 93.394531 81.257812 Z M 93.394531 81.257812 "/>
<path style=" stroke:none;fill-rule:evenodd;fill:rgb(0.784314%,14.901961%,16.862745%);fill-opacity:1;" d="M 199.683594 81.433594 C 215.730469 81.257812 224.996094 89.105469 227.480469 104.976562 C 228.515625 117.300781 226.121094 128.898438 220.289062 139.765625 C 216.179688 146.984375 210.421875 152.460938 203.015625 156.191406 C 197.351562 158.691406 191.449219 159.511719 185.300781 158.652344 C 176.910156 156.804688 170.917969 151.972656 167.324219 144.15625 C 164.839844 138.074219 163.902344 131.75 164.515625 125.183594 C 164.960938 115.359375 167.765625 106.28125 172.933594 97.949219 C 179.277344 88.257812 188.191406 82.753906 199.683594 81.433594 Z M 199.683594 81.433594 "/>
<path style=" stroke:none;fill-rule:evenodd;fill:rgb(60%,65.490196%,66.27451%);fill-opacity:1;" d="M 113.566406 145.738281 C 119.382812 145.5625 125.226562 145.503906 131.105469 145.5625 C 131.144531 145.789062 131.085938 145.964844 130.929688 146.089844 C 125.203125 145.738281 119.414062 145.621094 113.566406 145.738281 Z M 113.566406 145.738281 "/>
<path style=" stroke:none;fill-rule:evenodd;fill:rgb(56.078431%,62.352941%,63.137255%);fill-opacity:1;" d="M 217.398438 158.039062 C 217.898438 157.808594 218.425781 157.808594 218.976562 158.039062 C 218.953125 158.144531 218.894531 158.203125 218.800781 158.210938 C 218.371094 158.042969 217.902344 157.984375 217.398438 158.039062 Z M 217.398438 158.039062 "/>
<path style=" stroke:none;fill-rule:evenodd;fill:rgb(40.392157%,49.019608%,50.196078%);fill-opacity:1;" d="M 235.988281 225.328125 C 248.234375 225.503906 260.511719 225.5625 272.820312 225.503906 C 260.511719 225.738281 248.179688 225.738281 235.8125 225.503906 C 235.832031 225.398438 235.894531 225.339844 235.988281 225.328125 Z M 235.988281 225.328125 "/>
<path style=" stroke:none;fill-rule:evenodd;fill:rgb(40%,48.627451%,49.803922%);fill-opacity:1;" d="M 382.089844 225.328125 C 382.183594 225.339844 382.242188 225.398438 382.265625 225.503906 C 369.839844 225.738281 357.445312 225.738281 345.082031 225.503906 C 357.445312 225.5625 369.78125 225.503906 382.089844 225.328125 Z M 382.089844 225.328125 "/>
</g>
</svg>
