<?xml version="1.0" encoding="UTF-8"?>
<svg xmlns="http://www.w3.org/2000/svg" xmlns:xlink="http://www.w3.org/1999/xlink" width="px" height="253px" viewBox="0 0 747 253" version="1.1">
<defs>
<filter id="alpha" filterUnits="objectBoundingBox" x="0%" y="0%" width="100%" height="100%">
  <feColorMatrix type="matrix" in="SourceGraphic" values="0 0 0 0 1 0 0 0 0 1 0 0 0 0 1 0 0 0 1 0"/>
</filter>
<mask id="mask0">
  <g filter="url(#alpha)">
<rect x="0" y="0" width="747" height="253" style="fill:rgb(0%,0%,0%);fill-opacity:0.988235;stroke:none;"/>
  </g>
</mask>
<clipPath id="clip1">
  <rect x="0" y="0" width="748" height="253"/>
</clipPath>
<g id="surface5" clip-path="url(#clip1)">
<path style=" stroke:none;fill-rule:evenodd;fill:rgb(25.882353%,52.156863%,95.686275%);fill-opacity:1;" d="M 86.214844 0.933594 C 112.898438 -1.53125 136.554688 5.632812 157.179688 22.433594 C 158.75 23.898438 160.199219 25.457031 161.539062 27.105469 C 155.53125 33.433594 149.410156 39.664062 143.175781 45.800781 C 122.226562 27.234375 98.46875 22.558594 71.898438 31.78125 C 44.652344 44.246094 30.335938 65.539062 28.945312 95.652344 C 30.835938 129.210938 47.640625 151.332031 79.367188 162.019531 C 105.699219 168.183594 128.214844 161.640625 146.910156 142.390625 C 153.140625 133.855469 156.773438 124.300781 157.804688 113.726562 C 137.261719 113.726562 116.71875 113.726562 96.175781 113.726562 C 96.175781 105 96.175781 96.277344 96.175781 87.554688 C 125.671875 87.140625 155.035156 87.558594 184.261719 88.800781 C 187.550781 112.210938 183.191406 134.019531 171.1875 154.230469 C 152.660156 178.820312 127.867188 191.078125 96.796875 190.996094 C 51.980469 188.574219 21.375 166.554688 4.980469 124.941406 C -5.941406 84.835938 3.917969 50.875 34.546875 23.058594 C 49.726562 10.890625 66.949219 3.515625 86.214844 0.933594 Z M 86.214844 0.933594 "/>
</g>
<mask id="mask1">
  <g filter="url(#alpha)">
<rect x="0" y="0" width="747" height="253" style="fill:rgb(0%,0%,0%);fill-opacity:0.992157;stroke:none;"/>
  </g>
</mask>
<clipPath id="clip2">
  <rect x="0" y="0" width="748" height="253"/>
</clipPath>
<g id="surface8" clip-path="url(#clip2)">
<path style=" stroke:none;fill-rule:evenodd;fill:rgb(20.392157%,65.490196%,32.156863%);fill-opacity:1;" d="M 591.0625 7.789062 C 599.984375 7.789062 608.910156 7.789062 617.832031 7.789062 C 617.832031 67.613281 617.832031 127.433594 617.832031 187.257812 C 608.910156 187.257812 599.984375 187.257812 591.0625 187.257812 C 591.0625 127.433594 591.0625 67.613281 591.0625 7.789062 Z M 591.0625 7.789062 "/>
</g>
<mask id="mask2">
  <g filter="url(#alpha)">
<rect x="0" y="0" width="747" height="253" style="fill:rgb(0%,0%,0%);fill-opacity:0.984314;stroke:none;"/>
  </g>
</mask>
<clipPath id="clip3">
  <rect x="0" y="0" width="748" height="253"/>
</clipPath>
<g id="surface11" clip-path="url(#clip3)">
<path style=" stroke:none;fill-rule:evenodd;fill:rgb(91.764706%,26.27451%,20.392157%);fill-opacity:1;" d="M 249.3125 68.234375 C 276.054688 66.507812 296.496094 76.894531 310.628906 99.394531 C 319.433594 117.804688 320.058594 136.5 312.496094 155.476562 C 300.839844 178.148438 282.167969 189.988281 256.46875 190.996094 C 226.738281 189.464844 207.027344 174.714844 197.332031 146.753906 C 190.605469 117.710938 199.21875 94.550781 223.167969 77.269531 C 231.335938 72.433594 240.054688 69.421875 249.3125 68.234375 Z M 254.914062 92.539062 C 272.070312 93.285156 283.378906 101.800781 288.839844 118.085938 C 292.542969 132.003906 289.847656 144.46875 280.746094 155.476562 C 264.566406 169.601562 248.382812 169.601562 232.191406 155.476562 C 223.09375 144.46875 220.398438 132.003906 224.101562 118.085938 C 229.078125 103.019531 239.347656 94.503906 254.914062 92.539062 Z M 254.914062 92.539062 "/>
</g>
<mask id="mask3">
  <g filter="url(#alpha)">
<rect x="0" y="0" width="747" height="253" style="fill:rgb(0%,0%,0%);fill-opacity:0.984314;stroke:none;"/>
  </g>
</mask>
<clipPath id="clip4">
  <rect x="0" y="0" width="748" height="253"/>
</clipPath>
<g id="surface14" clip-path="url(#clip4)">
<path style=" stroke:none;fill-rule:evenodd;fill:rgb(98.431373%,73.72549%,1.568627%);fill-opacity:1;" d="M 380.660156 68.234375 C 406.714844 66.273438 426.945312 76.035156 441.351562 97.523438 C 453.921875 122.253906 452.261719 145.933594 436.371094 168.5625 C 416.957031 189.441406 393.613281 195.566406 366.339844 186.945312 C 344.164062 178.035156 331.195312 161.726562 327.433594 138.027344 C 324.734375 105.257812 338.535156 82.929688 368.832031 71.039062 C 372.832031 69.984375 376.777344 69.050781 380.660156 68.234375 Z M 386.882812 92.539062 C 398.148438 92.660156 407.378906 97.019531 414.585938 105.625 C 424.960938 121.414062 424.960938 137.199219 414.585938 152.984375 C 401.433594 167.375 386.386719 169.761719 369.453125 160.148438 C 354.777344 147.582031 350.730469 132.105469 357.316406 113.726562 C 363.203125 101.070312 373.0625 94.007812 386.882812 92.539062 Z M 386.882812 92.539062 "/>
</g>
<mask id="mask4">
  <g filter="url(#alpha)">
<rect x="0" y="0" width="747" height="253" style="fill:rgb(0%,0%,0%);fill-opacity:0.984314;stroke:none;"/>
  </g>
</mask>
<clipPath id="clip5">
  <rect x="0" y="0" width="748" height="253"/>
</clipPath>
<g id="surface17" clip-path="url(#clip5)">
<path style=" stroke:none;fill-rule:evenodd;fill:rgb(25.882353%,52.156863%,95.686275%);fill-opacity:1;" d="M 510.761719 68.234375 C 523.035156 66.945312 534.242188 69.75 544.375 76.648438 C 546.253906 78.351562 548.015625 80.117188 549.667969 81.945312 C 549.976562 78.628906 550.082031 75.304688 549.980469 71.972656 C 558.695312 71.972656 567.410156 71.972656 576.125 71.972656 C 576.226562 110.816406 576.125 149.660156 575.8125 188.503906 C 572.144531 228.523438 550.253906 247.324219 510.140625 244.898438 C 487.972656 241.5 472.410156 229.558594 463.453125 209.066406 C 471.199219 205.683594 478.980469 202.363281 486.796875 199.097656 C 498.34375 220.191406 515.046875 225.695312 536.90625 215.609375 C 544.671875 209.308594 548.925781 201.105469 549.667969 190.996094 C 550.082031 186.21875 550.082031 181.441406 549.667969 176.664062 C 543.9375 183.222656 536.777344 187.480469 528.191406 189.4375 C 500.617188 192.929688 479.761719 182.648438 465.628906 158.59375 C 452.703125 128.945312 457.992188 103.082031 481.503906 81.011719 C 490.246094 74.347656 500 70.089844 510.761719 68.234375 Z M 518.230469 92.539062 C 533.761719 93.304688 544.242188 100.988281 549.667969 115.59375 C 554.691406 132.136719 551.265625 146.574219 539.394531 158.902344 C 522.550781 169.910156 507.300781 167.9375 493.640625 152.984375 C 483.058594 136.15625 483.679688 119.75 495.511719 103.753906 C 501.863281 97.40625 509.4375 93.667969 518.230469 92.539062 Z M 518.230469 92.539062 "/>
</g>
<mask id="mask5">
  <g filter="url(#alpha)">
<rect x="0" y="0" width="747" height="253" style="fill:rgb(0%,0%,0%);fill-opacity:0.980392;stroke:none;"/>
  </g>
</mask>
<clipPath id="clip6">
  <rect x="0" y="0" width="748" height="253"/>
</clipPath>
<g id="surface20" clip-path="url(#clip6)">
<path style=" stroke:none;fill-rule:evenodd;fill:rgb(91.764706%,26.27451%,20.392157%);fill-opacity:1;" d="M 678.835938 68.234375 C 704.820312 66.4375 723.804688 77.03125 735.796875 100.015625 C 737.769531 104.699219 739.742188 109.375 741.707031 114.035156 C 714.617188 125.621094 687.433594 137.046875 660.160156 148.308594 C 670.328125 164.789062 684.644531 169.777344 703.113281 163.265625 C 709.769531 160.03125 715.160156 155.359375 719.296875 149.246094 C 726.300781 153.738281 733.253906 158.308594 740.152344 162.953125 C 730.585938 178.082031 716.789062 187.121094 698.757812 190.0625 C 677.585938 192.757812 659.425781 186.632812 644.289062 171.679688 C 627.40625 150.238281 624.082031 126.765625 634.328125 101.261719 C 643.539062 82.585938 658.375 71.578125 678.835938 68.234375 Z M 681.949219 92.539062 C 690.792969 91.425781 698.679688 93.609375 705.605469 99.082031 C 707.089844 100.78125 708.335938 102.652344 709.339844 104.691406 C 691.703125 112.0625 674.0625 119.4375 656.425781 126.8125 C 655.636719 114.992188 659.992188 105.542969 669.5 98.457031 C 673.457031 95.953125 677.609375 93.980469 681.949219 92.539062 Z M 681.949219 92.539062 "/>
</g>
</defs>
<g id="surface1">
<use xlink:href="#surface5" mask="url(#mask0)"/>
<use xlink:href="#surface8" mask="url(#mask1)"/>
<use xlink:href="#surface11" mask="url(#mask2)"/>
<use xlink:href="#surface14" mask="url(#mask3)"/>
<use xlink:href="#surface17" mask="url(#mask4)"/>
<use xlink:href="#surface20" mask="url(#mask5)"/>
</g>
</svg>
