<?xml version="1.0" encoding="UTF-8"?>
<!DOCTYPE svg PUBLIC "-//W3C//DTD SVG 1.1//EN" "http://www.w3.org/Graphics/SVG/1.1/DTD/svg11.dtd">
<svg xmlns="http://www.w3.org/2000/svg" version="1.1" width="1280px" height="198px" style="shape-rendering:geometricPrecision; text-rendering:geometricPrecision; image-rendering:optimizeQuality; fill-rule:evenodd; clip-rule:evenodd" xmlns:xlink="http://www.w3.org/1999/xlink">
<g><path style="opacity:0.983" fill="#ea4334" d="M 182.5,22.5 C 172.778,32.2191 163.445,42.2191 154.5,52.5C 136.439,39.7015 117.439,38.2015 97.5,48C 93.0506,50.2843 89.384,53.4509 86.5,57.5C 67.7017,53.7937 50.3684,57.127 34.5,67.5C 45.7125,30.4583 70.3791,8.29164 108.5,1C 136.496,-2.67393 161.163,4.49274 182.5,22.5 Z"/></g>
<g><path style="opacity:0.988" fill="#4285f3" d="M 182.5,22.5 C 196.509,34.4907 206.009,49.4907 211,67.5C 236.916,87.799 244.916,113.799 235,145.5C 224.752,169.078 206.919,182.911 181.5,187C 161.836,187.5 142.169,187.667 122.5,187.5C 122.5,173.833 122.5,160.167 122.5,146.5C 140.503,146.667 158.503,146.5 176.5,146C 191.083,142.083 197.916,132.583 197,117.5C 193.736,105.403 185.903,98.4035 173.5,96.5C 173.334,78.9512 167.001,64.2845 154.5,52.5C 163.445,42.2191 172.778,32.2191 182.5,22.5 Z"/></g>
<g><path style="opacity:0.977" fill="#5e6267" d="M 362.5,27.5 C 384.237,24.8016 402.904,30.9683 418.5,46C 414,50.5 409.5,55 405,59.5C 391.224,46.9439 375.391,43.4439 357.5,49C 335.159,58.8357 324.992,76.0024 327,100.5C 332.85,124.868 348.35,138.201 373.5,140.5C 388.126,139.7 399.96,133.7 409,122.5C 412.267,117.638 414.101,112.305 414.5,106.5C 400.5,106.5 386.5,106.5 372.5,106.5C 372.5,100.167 372.5,93.8333 372.5,87.5C 392.833,87.5 413.167,87.5 433.5,87.5C 437.774,113.874 429.107,134.708 407.5,150C 379.672,164.229 353.339,161.896 328.5,143C 309.012,124.862 302.179,102.696 308,76.5C 316.92,49.741 335.086,33.4076 362.5,27.5 Z"/></g>
<g><path style="opacity:0.968" fill="#5e6267" d="M 717.5,32.5 C 723.833,32.5 730.167,32.5 736.5,32.5C 736.5,73.8333 736.5,115.167 736.5,156.5C 730.167,156.5 723.833,156.5 717.5,156.5C 717.5,115.167 717.5,73.8333 717.5,32.5 Z"/></g>
<g><path style="opacity:0.965" fill="#5e6267" d="M 917.5,38.5 C 935.637,37.9291 950.637,44.4291 962.5,58C 958.985,61.6824 955.318,65.1824 951.5,68.5C 938.088,54.3145 922.088,50.4812 903.5,57C 885.201,64.9753 876.201,78.9753 876.5,99C 877.871,126.04 892.038,141.206 919,144.5C 933.538,143.813 945.705,138.146 955.5,127.5C 959.366,130.532 962.699,134.032 965.5,138C 953.848,152.239 938.681,159.406 920,159.5C 883.077,156.41 862.91,136.41 859.5,99.5C 860.524,71.6614 873.857,52.4947 899.5,42C 905.556,40.3742 911.556,39.2075 917.5,38.5 Z"/></g>
<g><path style="opacity:0.974" fill="#5e6267" d="M 1242.5,41.5 C 1247.83,41.5 1253.17,41.5 1258.5,41.5C 1258.5,79.8333 1258.5,118.167 1258.5,156.5C 1253.5,156.5 1248.5,156.5 1243.5,156.5C 1243.67,153.15 1243.5,149.817 1243,146.5C 1229.76,160.178 1214.6,162.678 1197.5,154C 1181.78,141.506 1175.94,125.339 1180,105.5C 1189.15,79.1737 1206.99,70.3404 1233.5,79C 1236.96,81.4626 1240.13,84.2959 1243,87.5C 1242.53,72.2487 1242.37,56.9154 1242.5,41.5 Z M 1213.5,89.5 C 1232.45,88.819 1242.45,97.9857 1243.5,117C 1242.41,136.765 1232.07,145.765 1212.5,144C 1202.75,140.575 1196.91,133.742 1195,123.5C 1192.62,107.248 1198.79,95.9143 1213.5,89.5 Z"/></g>
<g><path style="opacity:0.957" fill="#5e6368" d="M 977.5,41.5 C 982.833,41.5 988.167,41.5 993.5,41.5C 993.5,79.8333 993.5,118.167 993.5,156.5C 988.167,156.5 982.833,156.5 977.5,156.5C 977.5,118.167 977.5,79.8333 977.5,41.5 Z"/></g>
<g><path style="opacity:0.988" fill="#fbbb05" d="M 86.5,57.5 C 102.437,60.4607 115.103,68.4607 124.5,81.5C 114.848,91.6525 105.014,101.653 95,111.5C 85.1772,96.1693 72.3439,93.0027 56.5,102C 46.3779,112.01 44.8779,123.176 52,135.5C 54.7468,138.754 57.9135,141.42 61.5,143.5C 51.8333,153.833 41.8333,163.833 31.5,173.5C 10.6753,155.865 2.84198,133.532 8,106.5C 11.8851,90.0408 20.7185,77.0408 34.5,67.5C 50.3684,57.127 67.7017,53.7937 86.5,57.5 Z"/></g>
<g><path style="opacity:0.968" fill="#5e6267" d="M 662.5,73.5 C 672.188,73.2265 680.355,76.5598 687,83.5C 687.497,81.1902 687.663,78.8568 687.5,76.5C 693.5,76.5 699.5,76.5 705.5,76.5C 705.667,105.502 705.5,134.502 705,163.5C 698.539,189.171 682.039,200.004 655.5,196C 642.498,192.335 633.165,184.335 627.5,172C 632.306,168.942 637.473,166.442 643,164.5C 646.813,169.976 651.646,174.476 657.5,178C 679.007,181.495 688.507,172.328 686,150.5C 680.199,156.214 673.199,159.214 665,159.5C 644.587,157.76 631.254,147.094 625,127.5C 620.989,97.8143 633.489,79.8143 662.5,73.5 Z M 664.5,91.5 C 683.703,94.8745 691.203,106.208 687,125.5C 681.877,138.978 672.377,143.812 658.5,140C 646.361,133.887 641.527,124.053 644,110.5C 647.208,100.12 654.042,93.7872 664.5,91.5 Z"/></g>
<g><path style="opacity:0.972" fill="#5e6267" d="M 473.5,74.5 C 498.573,71.7723 515.407,82.1056 524,105.5C 528.081,137.254 514.247,155.254 482.5,159.5C 459.101,157.592 444.934,145.258 440,122.5C 438.621,97.5531 449.787,81.5531 473.5,74.5 Z M 478.5,91.5 C 492.218,91.0548 501.051,97.3881 505,110.5C 507.535,125.608 501.702,135.775 487.5,141C 466.452,141.14 457.285,130.64 460,109.5C 462.789,99.8753 468.956,93.8753 478.5,91.5 Z"/></g>
<g><path style="opacity:0.97" fill="#5e6267" d="M 565.5,74.5 C 582.982,72.0463 597.482,77.3796 609,90.5C 621.206,110.223 620.039,129.056 605.5,147C 588.836,160.776 570.836,162.776 551.5,153C 531.003,136.874 526.503,117.041 538,93.5C 544.915,83.7271 554.082,77.3938 565.5,74.5 Z M 570.5,91.5 C 583.807,90.9815 592.64,96.9815 597,109.5C 599.842,124.994 594.009,135.494 579.5,141C 565.648,142.475 556.481,136.641 552,123.5C 549.215,107.378 555.382,96.7113 570.5,91.5 Z"/></g>
<g><path style="opacity:0.968" fill="#5e6267" d="M 775.5,74.5 C 799.867,71.865 815.867,82.1984 823.5,105.5C 805.014,113.906 786.348,122.072 767.5,130C 774.957,141.262 784.957,144.262 797.5,139C 801.299,136.203 804.799,133.036 808,129.5C 812.833,133 817.667,136.5 822.5,140C 807.225,159.495 788.225,164.162 765.5,154C 746.636,140.747 740.469,122.913 747,100.5C 752.627,87.3636 762.127,78.6969 775.5,74.5 Z M 780.5,91.5 C 787.81,90.2148 793.976,92.2148 799,97.5C 799.667,98.1667 799.667,98.8333 799,99.5C 787.333,104.5 775.667,109.5 764,114.5C 764.276,103.061 769.776,95.3946 780.5,91.5 Z"/></g>
<g><path style="opacity:0.964" fill="#5e6267" d="M 1036.5,75.5 C 1060.93,72.4513 1077.09,82.4513 1085,105.5C 1089.01,124.148 1083.84,139.648 1069.5,152C 1047.73,163.9 1028.57,160.733 1012,142.5C 999.929,120.436 1002.76,100.603 1020.5,83C 1025.54,79.6426 1030.88,77.1426 1036.5,75.5 Z M 1040.5,89.5 C 1061.7,90.2038 1071.53,101.204 1070,122.5C 1066.19,138.637 1056.03,145.803 1039.5,144C 1024.66,137.84 1018.5,126.673 1021,110.5C 1023.95,100.055 1030.45,93.0551 1040.5,89.5 Z"/></g>
<g><path style="opacity:0.944" fill="#5f6368" d="M 1097.5,77.5 C 1102.5,77.5 1107.5,77.5 1112.5,77.5C 1112.07,95.8804 1112.57,114.214 1114,132.5C 1116.69,141.02 1122.53,145.02 1131.5,144.5C 1141.79,143.388 1148.29,137.721 1151,127.5C 1151.5,110.837 1151.67,94.17 1151.5,77.5C 1156.83,77.5 1162.17,77.5 1167.5,77.5C 1167.5,103.833 1167.5,130.167 1167.5,156.5C 1162.5,156.5 1157.5,156.5 1152.5,156.5C 1152.67,153.15 1152.5,149.817 1152,146.5C 1145.81,155.181 1137.31,159.514 1126.5,159.5C 1111.22,159.054 1101.72,151.387 1098,136.5C 1097.5,116.836 1097.33,97.1695 1097.5,77.5 Z"/></g>
<g><path style="opacity:0.986" fill="#35a753" d="M 61.5,143.5 C 64.6624,144.863 67.9957,145.697 71.5,146C 88.4967,146.5 105.497,146.667 122.5,146.5C 122.5,160.167 122.5,173.833 122.5,187.5C 101.131,187.918 79.7978,187.418 58.5,186C 48.4077,183.951 39.4077,179.784 31.5,173.5C 41.8333,163.833 51.8333,153.833 61.5,143.5 Z"/></g>
</svg>
