<?xml version="1.0" encoding="UTF-8"?>
<!DOCTYPE svg PUBLIC "-//W3C//DTD SVG 1.1//EN" "http://www.w3.org/Graphics/SVG/1.1/DTD/svg11.dtd">
<svg xmlns="http://www.w3.org/2000/svg" version="1.1" width="1280px" height="273px" style="shape-rendering:geometricPrecision; text-rendering:geometricPrecision; image-rendering:optimizeQuality; fill-rule:evenodd; clip-rule:evenodd" xmlns:xlink="http://www.w3.org/1999/xlink">
<g><path style="opacity:0.986" fill="#f14f21" d="M -0.5,-0.5 C 43.1667,-0.5 86.8333,-0.5 130.5,-0.5C 130.5,42.8333 130.5,86.1667 130.5,129.5C 86.8333,129.5 43.1667,129.5 -0.5,129.5C -0.5,86.1667 -0.5,42.8333 -0.5,-0.5 Z"/></g>
<g><path style="opacity:0.993" fill="#7fba00" d="M 142.5,-0.5 C 186.167,-0.5 229.833,-0.5 273.5,-0.5C 273.5,42.8333 273.5,86.1667 273.5,129.5C 229.833,129.5 186.167,129.5 142.5,129.5C 142.5,86.1667 142.5,42.8333 142.5,-0.5 Z"/></g>
<g><path style="opacity:0.961" fill="#727272" d="M 1279.5,99.5 C 1279.5,107.5 1279.5,115.5 1279.5,123.5C 1270.17,123.5 1260.83,123.5 1251.5,123.5C 1251.33,144.169 1251.5,164.836 1252,185.5C 1255.03,195.104 1261.53,198.604 1271.5,196C 1273.61,195.443 1275.61,194.609 1277.5,193.5C 1278.83,201.5 1278.83,209.5 1277.5,217.5C 1263.61,221.949 1249.94,221.449 1236.5,216C 1228.82,210.489 1224.32,202.989 1223,193.5C 1222.5,170.169 1222.33,146.836 1222.5,123.5C 1209.17,123.5 1195.83,123.5 1182.5,123.5C 1182.5,155.167 1182.5,186.833 1182.5,218.5C 1172.83,218.5 1163.17,218.5 1153.5,218.5C 1153.5,186.833 1153.5,155.167 1153.5,123.5C 1146.83,123.5 1140.17,123.5 1133.5,123.5C 1133.5,115.5 1133.5,107.5 1133.5,99.5C 1140.17,99.5 1146.83,99.5 1153.5,99.5C 1153.14,89.7761 1153.64,80.1094 1155,70.5C 1162.29,50.5702 1176.62,40.9035 1198,41.5C 1202.84,41.3292 1207.5,41.9958 1212,43.5C 1212.67,51.8333 1212.67,60.1667 1212,68.5C 1204.58,64.7652 1197.08,64.5985 1189.5,68C 1186.19,70.7783 1184.03,74.2783 1183,78.5C 1182.5,85.4921 1182.33,92.4921 1182.5,99.5C 1195.83,99.5 1209.17,99.5 1222.5,99.5C 1222.5,90.5 1222.5,81.5 1222.5,72.5C 1231.91,70.1472 1241.24,67.4805 1250.5,64.5C 1251.5,76.1477 1251.83,87.8143 1251.5,99.5C 1260.83,99.5 1270.17,99.5 1279.5,99.5 Z"/></g>
<g><path style="opacity:0.955" fill="#727272" d="M 566.5,50.5 C 576.897,48.449 584.397,52.1157 589,61.5C 591.017,74.8066 585.351,82.14 572,83.5C 558.492,81.4766 553.159,73.8099 556,60.5C 558.081,55.5837 561.581,52.2504 566.5,50.5 Z"/></g>
<g><path style="opacity:0.967" fill="#727272" d="M 354.5,53.5 C 368.516,53.1674 382.516,53.5008 396.5,54.5C 411.98,94.2796 427.647,133.946 443.5,173.5C 460.026,133.924 476.36,94.257 492.5,54.5C 505.817,53.5008 519.15,53.1675 532.5,53.5C 532.5,108.5 532.5,163.5 532.5,218.5C 522.833,218.5 513.167,218.5 503.5,218.5C 503.667,176.165 503.5,133.832 503,91.5C 486,133.672 469.5,176.005 453.5,218.5C 446.5,218.5 439.5,218.5 432.5,218.5C 415.97,176.083 399.137,133.75 382,91.5C 381.5,133.832 381.333,176.165 381.5,218.5C 372.5,218.5 363.5,218.5 354.5,218.5C 354.5,163.5 354.5,108.5 354.5,53.5 Z"/></g>
<g><path style="opacity:0.968" fill="#727272" d="M 954.5,96.5 C 967.422,95.6616 980.088,96.9949 992.5,100.5C 992.832,109.857 992.498,119.19 991.5,128.5C 983.37,123.401 974.537,120.401 965,119.5C 955.888,118.957 950.722,123.123 949.5,132C 949.744,135.487 951.077,138.487 953.5,141C 963.798,145.993 974.132,150.993 984.5,156C 999.12,166.962 1003.29,181.129 997,198.5C 991.276,209.287 982.442,216.12 970.5,219C 953.431,222.46 936.765,220.96 920.5,214.5C 919.167,205.167 919.167,195.833 920.5,186.5C 932.585,194.807 945.918,198.307 960.5,197C 968.944,194.947 971.778,189.78 969,181.5C 967.5,178.667 965.333,176.5 962.5,175C 951.728,170.448 941.394,165.114 931.5,159C 921.069,148.443 917.902,135.943 922,121.5C 928.522,107.496 939.356,99.1631 954.5,96.5 Z"/></g>
<g><path style="opacity:0.962" fill="#727272" d="M 656.5,97.5 C 670.409,96.0656 683.743,98.0656 696.5,103.5C 697.833,112.833 697.833,122.167 696.5,131.5C 681.774,120.067 666.107,118.567 649.5,127C 634.821,140.699 630.654,157.199 637,176.5C 644.311,191.744 656.477,198.577 673.5,197C 682.06,195.039 689.893,191.539 697,186.5C 697.667,195.5 697.667,204.5 697,213.5C 675.51,223.311 654.01,223.478 632.5,214C 608.866,197.532 600.033,175.032 606,146.5C 611.917,118.748 628.75,102.414 656.5,97.5 Z"/></g>
<g><path style="opacity:0.969" fill="#727272" d="M 837.5,97.5 C 881.914,93.9245 905.58,114.258 908.5,158.5C 905.962,202.605 882.629,223.438 838.5,221C 811.814,218.644 795.314,204.478 789,178.5C 783.885,155.402 788.219,134.402 802,115.5C 811.939,105.614 823.773,99.614 837.5,97.5 Z M 847.5,120.5 C 862.537,120.928 872.37,128.262 877,142.5C 880.96,157.858 879.294,172.525 872,186.5C 861.778,197.214 849.611,200.047 835.5,195C 826.201,190.253 820.367,182.753 818,172.5C 814.59,156.712 817.59,142.379 827,129.5C 832.93,124.253 839.763,121.253 847.5,120.5 Z"/></g>
<g><path style="opacity:0.967" fill="#727272" d="M 1061.5,97.5 C 1110.56,95.0578 1133.72,118.391 1131,167.5C 1127.28,198.885 1109.78,216.719 1078.5,221C 1035.53,223.525 1012.86,203.359 1010.5,160.5C 1010.41,125.291 1027.41,104.291 1061.5,97.5 Z M 1070.5,120.5 C 1086.7,120.864 1096.86,128.864 1101,144.5C 1104.77,160.263 1102.43,174.93 1094,188.5C 1081.38,198.974 1067.88,200.141 1053.5,192C 1043.9,183.56 1039.57,172.894 1040.5,160C 1039.71,146.347 1044.38,135.014 1054.5,126C 1059.59,123.028 1064.92,121.195 1070.5,120.5 Z"/></g>
<g><path style="opacity:0.971" fill="#727272" d="M 774.5,97.5 C 778.177,98.0848 781.843,98.7515 785.5,99.5C 786.833,109.167 786.833,118.833 785.5,128.5C 762.28,119.375 749.113,127.375 746,152.5C 745.5,174.497 745.333,196.497 745.5,218.5C 736.167,218.5 726.833,218.5 717.5,218.5C 717.5,178.833 717.5,139.167 717.5,99.5C 726.833,99.5 736.167,99.5 745.5,99.5C 745.334,105.176 745.501,110.843 746,116.5C 751.662,104.262 761.162,97.9286 774.5,97.5 Z"/></g>
<g><path style="opacity:0.942" fill="#727272" d="M 557.5,99.5 C 567.167,99.5 576.833,99.5 586.5,99.5C 586.5,139.167 586.5,178.833 586.5,218.5C 576.833,218.5 567.167,218.5 557.5,218.5C 557.5,178.833 557.5,139.167 557.5,99.5 Z"/></g>
<g><path style="opacity:0.986" fill="#00a4ef" d="M -0.5,142.5 C 43.1667,142.5 86.8333,142.5 130.5,142.5C 130.5,185.833 130.5,229.167 130.5,272.5C 86.8333,272.5 43.1667,272.5 -0.5,272.5C -0.5,229.167 -0.5,185.833 -0.5,142.5 Z"/></g>
<g><path style="opacity:0.993" fill="#ffb800" d="M 273.5,272.5 C 229.833,272.5 186.167,272.5 142.5,272.5C 142.5,229.167 142.5,185.833 142.5,142.5C 186.167,142.5 229.833,142.5 273.5,142.5C 273.5,185.833 273.5,229.167 273.5,272.5 Z"/></g>
</svg>
